<!-- Generated by IcoMoon.io -->
<svg version="1.1" xmlns="http://www.w3.org/2000/svg" width="1024" height="1024" viewBox="0 0 1024 1024">
<g id="icomoon-ignore">
</g>
<path d="M511.915 197.12c102.613 0 114.773 0.512 155.093 2.304 37.504 1.664 57.728 7.936 71.253 13.227 17.835 6.869 30.72 15.275 44.075 28.587 13.483 13.525 21.76 26.283 28.8 44.117 5.248 13.525 11.52 33.92 13.184 71.253 1.792 40.533 2.261 52.651 2.261 155.093s-0.427 114.773-2.261 155.093c-1.664 37.547-7.936 57.728-13.227 71.253-6.869 17.835-15.275 30.72-28.587 44.075-13.568 13.525-26.283 21.76-44.117 28.8-13.525 5.248-33.92 11.52-71.253 13.227-40.533 1.792-52.651 2.219-155.093 2.219s-114.731-0.427-155.093-2.261c-37.504-1.621-57.728-7.936-71.253-13.184-17.275-6.51-31.993-16.275-44.050-28.647l-0.025-0.025c-12.445-12.074-22.253-26.792-28.526-43.255l-0.274-0.82c-5.248-13.483-11.52-33.877-13.227-71.253-1.792-40.491-2.261-52.608-2.261-155.093 0-102.4 0.469-114.688 2.261-155.051 1.707-37.547 7.979-57.771 13.227-71.253 6.912-17.877 15.317-30.72 28.629-44.117 12.086-12.45 26.818-22.259 43.297-28.526l0.821-0.274c13.525-5.248 33.877-11.52 71.253-13.227 40.32-1.749 52.48-2.219 155.093-2.219zM511.915 128.043c-104.235 0-117.248 0.469-158.208 2.261-40.789 1.835-68.864 8.405-93.141 17.877-26.658 10.181-49.379 25.277-68.066 44.342l-0.030 0.031c-19.083 18.683-34.177 41.359-43.938 66.685l-0.435 1.283c-9.472 24.448-16.043 52.309-17.877 93.099-1.792 41.088-2.219 54.144-2.219 158.379 0 104.277 0.427 117.291 2.219 158.251 1.835 40.789 8.405 68.864 17.877 93.141 10.186 26.642 25.282 49.348 44.342 68.022l0.032 0.031c18.69 19.034 41.366 34.086 66.683 43.811l1.285 0.434c24.448 9.472 52.309 16.085 93.099 17.877 40.96 1.792 54.016 2.261 158.251 2.261s117.333-0.427 158.251-2.261c40.789-1.792 68.821-8.405 93.099-17.877 26.602-10.16 49.278-25.211 67.94-44.217l0.028-0.028c21.248-21.333 34.475-42.709 44.245-67.925 9.429-24.448 16.043-52.309 17.835-93.141 1.792-40.96 2.261-53.973 2.261-158.208s-0.427-117.291-2.261-158.251c-1.792-40.789-8.405-68.821-17.835-93.141-9.751-26.8-24.757-49.632-43.903-68.224l-0.044-0.042c-18.681-19.013-41.342-34.050-66.64-43.769l-1.285-0.434c-24.448-9.472-52.352-16.085-93.141-17.877-41.088-1.963-54.144-2.432-158.379-2.432z"></path>
<path d="M511.915 314.752c-106.777 2.806-192.266 90.033-192.266 197.227s85.488 194.42 192.006 197.221l0.26 0.005c107.682-1.634 194.347-89.31 194.347-197.227s-86.665-195.592-194.193-197.225l-0.154-0.002zM511.915 639.872c-70.645 0-127.915-57.269-127.915-127.915s57.269-127.915 127.915-127.915v0c70.657 0 127.936 57.279 127.936 127.936s-57.279 127.936-127.936 127.936v0zM762.965 306.944c0.014 0.418 0.021 0.909 0.021 1.402 0 25.449-20.631 46.080-46.080 46.080s-46.080-20.631-46.080-46.080c0-0.493 0.008-0.984 0.023-1.473l-0.002 0.071c0.78-24.839 21.102-44.678 46.059-44.678s45.279 19.839 46.057 44.607l0.002 0.071z"></path>
</svg>
