<svg xmlns="http://www.w3.org/2000/svg" id="_Слой_1" data-name="Слой_1" viewBox="0 0 69.58 17.78"><defs><style>.st0{fill:#1d1d1b}</style></defs><path d="M18.98.34v17.1h-2.05V5.74c-1.56 3.58-3.46 6.48-7.44 6.48s-5.88-2.9-7.44-6.48v11.7H0V.34h2.08c.29.69.56 1.38.82 2.04 1.96 4.97 3.24 7.79 6.59 7.79s4.63-2.81 6.59-7.79c.26-.67.54-1.35.82-2.04zM30.66.34v2.05h-1.03c-3.08 0-5.67 4.26-5.67 9.3v5.75h-2.05V.34h2.05v3.62s.03-.05.05-.08C25.47 1.6 27.47.34 29.64.34h1.03ZM33.58 17.44V.34h2.05v17.1zM52.79.34c-.24 1.76-.71 5.01-1.37 8.39-1.46 7.48-4.79 9.05-7.34 9.05-1.55 0-2.55-.18-4-.64v-2.16c1.67.56 2.51.74 4 .74 1.3 0 2.93-.7 4.17-3.51-7.29-.27-8.62-6.76-9.6-11.52-.02-.12-.05-.24-.07-.36h2.09c1 4.85 2.05 9.84 8.06 9.84h.24c.16-.56.3-1.17.43-1.85.62-3.17 1.07-6.21 1.32-8h2.07ZM67.47 17.44c-.13-.59-.25-1.26-.35-1.99-1.88 1.33-3.46 2.33-5.57 2.33-1.52 0-2.92-.49-3.94-1.37-.86-.75-1.89-2.16-1.89-4.67s1.36-4.11 4.04-5.01c2.01-.67 4.55-.84 6.92-.87-.46-2.82-1.81-3.81-4.64-3.81-1.65 0-2.57.27-4.91 1.19l-.75-1.91C58.73.4 59.97 0 62.04 0c6.07 0 6.89 4.46 6.89 8.82v2.92c0 2.33.33 4.3.67 5.7h-2.11Zm-.57-4.34q-.03-.66-.03-1.35V8.83c0-.31 0-.62-.01-.9-6.44.09-9.08 1.22-9.08 3.83 0 1.39.4 2.44 1.18 3.12.65.56 1.57.87 2.6.87 1.63 0 2.91-.91 4.85-2.28.16-.12.33-.23.5-.35Z" class="st0"/></svg>